<svg width="78" height="25" viewBox="0 0 78 25" fill="none" xmlns="http://www.w3.org/2000/svg">
<path d="M15.2296 8.86295C15.2296 11.1286 14.4876 12.8649 13.0036 14.0719C11.5196 15.2789 9.4073 15.8824 6.6668 15.8824H4.41108V24H0.864258V2.30355H7.11201C9.82283 2.30355 11.851 2.85759 13.1965 3.96566C14.5519 5.07374 15.2296 6.70617 15.2296 8.86295ZM4.41108 12.8995H6.29579C8.1162 12.8995 9.45182 12.5829 10.3027 11.9497C11.1535 11.3165 11.5789 10.3272 11.5789 8.98167C11.5789 7.73509 11.198 6.8051 10.4362 6.1917C9.67443 5.57831 8.48721 5.27161 6.87456 5.27161H4.41108V12.8995Z" fill="white"/>
<path d="M29.0952 24.2968C26.5427 24.2968 24.5442 23.5548 23.0997 22.0708C21.6652 20.5769 20.9479 18.524 20.9479 15.9121C20.9479 13.2309 21.6157 11.1236 22.9513 9.59012C24.2869 8.05663 26.1222 7.28988 28.4571 7.28988C30.6237 7.28988 32.3353 7.9478 33.5918 9.26364C34.8483 10.5795 35.4765 12.39 35.4765 14.6952V16.5799H24.5392C24.5887 18.1727 25.0191 19.3995 25.8303 20.2603C26.6416 21.1111 27.7843 21.5365 29.2584 21.5365C30.228 21.5365 31.1283 21.4475 31.9594 21.2694C32.8003 21.0814 33.7006 20.7747 34.6603 20.3493V23.1838C33.8094 23.5894 32.9487 23.8763 32.0781 24.0445C31.2074 24.2127 30.2132 24.2968 29.0952 24.2968ZM28.4571 9.93145C27.349 9.93145 26.4586 10.2827 25.7858 10.9851C25.1229 11.6875 24.7272 12.7115 24.5986 14.057H32.0484C32.0286 12.7016 31.7021 11.6777 31.0689 10.9851C30.4358 10.2827 29.5651 9.93145 28.4571 9.93145Z" fill="white"/>
<path d="M52.4437 24L51.7462 21.7146H51.6275C50.836 22.7139 50.0395 23.3965 49.2382 23.7626C48.4368 24.1187 47.4079 24.2968 46.1514 24.2968C44.5388 24.2968 43.2773 23.8615 42.3671 22.9909C41.4668 22.1203 41.0167 20.8885 41.0167 19.2957C41.0167 17.6039 41.6449 16.3276 42.9014 15.4669C44.1579 14.6061 46.0722 14.1362 48.6446 14.057L51.479 13.968V13.0924C51.479 12.0437 51.2317 11.2621 50.737 10.7477C50.2523 10.2233 49.4954 9.96113 48.4665 9.96113C47.6255 9.96113 46.8192 10.0848 46.0475 10.3321C45.2758 10.5795 44.5338 10.8713 43.8215 11.2077L42.6936 8.71455C43.584 8.24955 44.5585 7.89833 45.6171 7.66089C46.6758 7.41355 47.675 7.28988 48.6149 7.28988C50.7024 7.28988 52.2755 7.74498 53.3341 8.65519C54.4026 9.56539 54.9368 10.995 54.9368 12.944V24H52.4437ZM47.2496 21.6256C48.5159 21.6256 49.53 21.2744 50.2918 20.5719C51.0635 19.8596 51.4494 18.8653 51.4494 17.589V16.1644L49.3421 16.2534C47.6997 16.3128 46.5026 16.5898 45.7507 17.0845C45.0087 17.5692 44.6377 18.3162 44.6377 19.3253C44.6377 20.0575 44.8553 20.6263 45.2907 21.032C45.726 21.4277 46.3789 21.6256 47.2496 21.6256Z" fill="white"/>
<path d="M65.9085 15.3333L67.8823 12.8698L72.8389 7.58669H76.8606L70.2567 14.6358L77.2762 24H73.1803L67.912 16.8025L65.9976 18.3756V24H62.5398V0.908569H65.9976V12.1723L65.8195 15.3333H65.9085Z" fill="white"/>
</svg>
