<svg width="64" height="64" viewBox="0 0 64 64" fill="none" xmlns="http://www.w3.org/2000/svg">
<path d="M62.504 33.1103C62.0661 32.2231 52.698 16.7808 52.4607 16.3952C50.7119 13.5572 47.6807 11.863 44.352 11.863C43.8772 11.863 43.4108 11.899 42.9543 11.9665C42.9539 11.9656 42.9527 11.9637 42.9523 11.9632C42.1457 10.6561 40.7495 9.87561 39.2178 9.87561C36.7993 9.87561 34.8316 11.8432 34.8316 14.2619V21.9258H29.1683V14.2619C29.1683 11.8434 27.2007 9.87561 24.7821 9.87561C23.2531 9.87561 21.8596 10.6532 21.0458 11.9665C20.5895 11.899 20.1228 11.863 19.6478 11.863C16.3192 11.863 13.288 13.5574 11.5391 16.3955C11.515 16.4346 11.4416 16.5538 9.67886 19.509C9.37586 20.017 9.54211 20.6745 10.05 20.9775C10.558 21.2803 11.2155 21.1145 11.5185 20.6063C12.969 18.1748 13.3222 17.5853 13.3631 17.519C14.7188 15.3187 17.0683 14.0051 19.648 14.0051C23.7165 14.0051 27.0262 17.315 27.0262 21.3833V21.384V31.9388C24.46 27.7537 19.8428 24.9558 14.5842 24.9558C12.2094 24.9558 9.96548 25.5268 7.98211 26.538C8.49148 25.6833 9.02961 24.7805 9.56961 23.875C9.87248 23.3668 9.70623 22.7093 9.19811 22.4065C8.68998 22.1036 8.03261 22.2698 7.72961 22.778C5.45387 26.5947 1.872 32.3217 1.4195 33.2672C0.509999 35.1681 0 37.2956 0 39.5402C0 47.5819 6.54249 54.1244 14.5842 54.1244C22.626 54.1244 29.1683 47.5819 29.1683 39.5402V36.6943H34.8316V39.5402C34.8316 47.5819 41.374 54.1244 49.4157 54.1244C57.4574 54.1244 63.9999 47.5819 63.9999 39.5402C64 37.2337 63.4616 35.0509 62.504 33.1103ZM27.0262 15.375C26.0367 14.1621 24.755 13.1974 23.2891 12.5882C23.6946 12.2245 24.2203 12.0177 24.7822 12.0177C26.0196 12.0177 27.0262 13.0244 27.0262 14.2617V15.375ZM14.5842 51.982C7.72361 51.982 2.14212 46.4007 2.14212 39.5401C2.14212 32.6794 7.72361 27.0979 14.5842 27.0979C21.4448 27.0979 27.0262 32.6794 27.0262 39.5401C27.0262 46.4007 21.4447 51.982 14.5842 51.982ZM29.1682 30.4394V24.0678H34.8314V30.4394H29.1682ZM34.8316 34.5522H29.1683V32.5817H34.8316V34.5522ZM36.9737 14.2619C36.9737 13.0245 37.9803 12.0179 39.2177 12.0179C39.7813 12.0179 40.3088 12.226 40.7122 12.5879C39.2458 13.197 37.9634 14.162 36.9737 15.3751V14.2619ZM36.9737 21.384V21.3833C36.9737 17.3148 40.2836 14.0051 44.3519 14.0051C46.9317 14.0051 49.281 15.3188 50.6368 17.519C50.7653 17.7276 53.4423 22.217 56.0178 26.538C54.0343 25.5267 51.7904 24.9557 49.4155 24.9557C44.1569 24.9557 39.5398 27.7537 36.9736 31.9387V21.384H36.9737ZM49.4158 51.982C42.5552 51.982 36.9738 46.4005 36.9738 39.5399C36.9738 32.6793 42.5553 27.0978 49.4158 27.0978C56.2764 27.0978 61.8579 32.6793 61.8579 39.5399C61.8579 46.4005 56.2763 51.982 49.4158 51.982Z" fill="white"/>
<path d="M58.8059 36.165C58.6057 35.6085 57.9924 35.3193 57.4357 35.5195C56.8792 35.7196 56.59 36.3331 56.7902 36.8897C57.0949 37.7376 57.2495 38.6293 57.2495 39.5401C57.2495 43.8597 53.7354 47.3739 49.4157 47.3739C45.0961 47.3739 41.5818 43.8597 41.5818 39.5401C41.5818 35.2205 45.0961 31.7062 49.4157 31.7062C51.5835 31.7062 53.6743 32.617 55.152 34.2048C55.555 34.6378 56.2327 34.6622 56.6659 34.2592C57.0989 33.8562 57.1233 33.1786 56.7203 32.7453C54.8389 30.7236 52.1764 29.564 49.4157 29.564C43.9148 29.564 39.4397 34.0391 39.4397 39.5399C39.4397 45.0408 43.9148 49.5159 49.4157 49.5159C54.9165 49.5159 59.3917 45.0408 59.3917 39.5399C59.3918 38.3817 59.1947 37.2461 58.8059 36.165Z" fill="white"/>
<path d="M14.5841 29.5641C9.08327 29.5641 4.60815 34.0393 4.60815 39.5401C4.60815 45.041 9.08327 49.5161 14.5841 49.5161C20.085 49.5161 24.5601 45.041 24.5601 39.5401C24.5601 34.0393 20.0849 29.5641 14.5841 29.5641ZM14.5841 47.3739C10.2645 47.3739 6.75027 43.8597 6.75027 39.54C6.75027 35.2204 10.2644 31.7061 14.5841 31.7061C18.9039 31.7061 22.418 35.2203 22.418 39.54C22.418 43.8597 18.9036 47.3739 14.5841 47.3739Z" fill="white"/>
</svg>
