<svg width="64" height="64" viewBox="0 0 64 64" fill="none" xmlns="http://www.w3.org/2000/svg">
<path d="M40.5327 12.8C44.0669 12.8 46.932 9.93462 46.932 6.4C46.932 2.86538 44.0669 0 40.5327 0C36.9984 0 34.1333 2.86538 34.1333 6.4C34.1368 9.93316 36.9999 12.7965 40.5327 12.8ZM40.5327 2.13333C42.8889 2.13333 44.7989 4.04359 44.7989 6.4C44.7989 8.75642 42.8889 10.6667 40.5327 10.6667C38.1765 10.6667 36.2664 8.75642 36.2664 6.4C36.2664 4.04359 38.1765 2.13333 40.5327 2.13333Z" fill="white"/>
<path d="M2.13627 64.0001H61.8637C62.6048 64.0011 63.2933 63.6175 63.6823 62.9868C64.0714 62.356 64.1053 61.5685 63.7718 60.9067L62.7053 58.7734C62.3443 58.051 61.6046 57.5961 60.7972 57.6001H51.1981V29.6705C52.4728 29.2222 53.3258 28.0181 53.3258 26.6667C53.3258 25.3154 52.4728 24.1112 51.1981 23.663V18.1334C51.1981 17.5443 50.7206 17.0667 50.1316 17.0667C49.5425 17.0667 49.065 17.5443 49.065 18.1334V23.4667H45.94C45.5834 23.4668 45.2505 23.2887 45.0526 22.9921L40.0099 15.4273C38.389 12.9916 35.2427 12.0886 32.577 13.2939C32.4033 12.1259 31.5974 11.1499 30.4833 10.7585L24.4349 8.65712C22.7623 8.08306 20.9403 8.96889 20.3585 10.639L19.3079 13.6587C18.7609 13.4958 18.1825 13.7925 17.9957 14.3319C17.8088 14.8713 18.0798 15.4622 18.6104 15.6726L17.2132 19.7057C16.6684 19.549 16.0964 19.8459 15.9107 20.3815C15.7251 20.9171 15.9908 21.5043 16.5157 21.7185C15.4832 24.6998 15.1419 25.2715 15.3424 26.367C13.9392 26.7036 12.9349 27.9379 12.8905 29.3803C12.8462 30.8228 13.7727 32.1165 15.1526 32.5387C22.3753 35.0529 22.7593 35.3825 24.0904 34.9675L23.1305 41.7281C23.0238 42.4619 23.4728 41.8998 15.3499 52.8491C14.2976 54.2271 14.1837 56.105 15.0619 57.6001H3.20283C2.39542 57.5964 1.65585 58.0511 1.29475 58.7734L0.228187 60.9067C-0.10528 61.5685 -0.0714067 62.356 0.31766 62.9868C0.706726 63.6175 1.39523 64.0011 2.13627 64.0001ZM43.0997 57.6001C43.5128 56.8989 43.7311 56.1002 43.7322 55.2865V44.6934C43.734 43.127 43.1601 41.6145 42.1195 40.4438L35.7447 33.2683C35.4925 32.9855 35.4137 32.5881 35.5389 32.2305L37.4907 26.3777L38.3887 27.6342C39.3909 29.034 41.006 29.8651 42.7275 29.8667H49.065V57.6001H43.0997ZM33.5007 15.2097C35.2101 14.4731 37.2015 15.0639 38.233 16.6134L43.2736 24.175C43.8678 25.0665 44.8687 25.6014 45.94 25.6001H50.1316C50.7206 25.6001 51.1981 26.0776 51.1981 26.6667C51.1981 27.2558 50.7206 27.7334 50.1316 27.7334H42.7275C41.6946 27.7321 40.7255 27.2335 40.124 26.3937L36.0711 20.7137C35.8562 20.3872 35.48 20.2044 35.0906 20.2372C34.7012 20.27 34.3609 20.5132 34.2037 20.8711C34.0465 21.2289 34.0976 21.6441 34.3368 21.9531L35.9623 24.2305L33.522 31.551C33.1521 32.6368 33.3967 33.8378 34.1619 34.6923L40.5314 41.8614C41.2228 42.6424 41.6028 43.6503 41.5991 44.6934V55.2865C41.6308 56.4499 40.7778 57.449 39.6238 57.6001C39.0312 57.644 38.4472 57.4388 38.0123 57.0339C37.5775 56.629 37.3312 56.061 37.3328 55.4667V48.7467C37.3272 47.3086 36.8415 45.9135 35.9527 44.783L27.77 35.6193C26.7236 34.2686 26.3924 32.4962 26.8805 30.8587C30.8886 18.207 30.9334 18.9174 30.9505 18.8107C31.439 17.3654 31.7472 15.9713 33.5049 15.2097H33.5007ZM27.2207 23.1723L19.229 20.399L20.6251 16.3691L28.587 19.135L27.2207 23.1723ZM22.3711 11.3323C22.5675 10.7767 23.1736 10.4817 23.732 10.6699L29.7805 12.7713C30.3323 12.9666 30.6236 13.5702 30.4332 14.1238L29.8999 15.6737C29.655 16.0887 29.4582 16.5303 29.3133 16.9899C29.2579 17.167 30.1506 17.4166 21.3269 14.3542L22.3711 11.3323ZM22.7881 32.9206L15.8555 30.5217C15.2972 30.3555 14.9489 29.8008 15.0417 29.2257C15.1164 28.9343 15.3084 28.6869 15.5721 28.5422C15.8358 28.3975 16.1476 28.3684 16.4335 28.4619C17.5225 28.8406 17.5865 28.895 17.9139 28.8587C21.1989 30.2102 21.1019 30.2038 21.3941 30.2038C21.9037 30.2043 22.3425 29.8442 22.4415 29.3442C22.5404 28.8442 22.2719 28.3441 21.8005 28.1505C16.9743 26.1654 18.0078 26.5771 17.723 26.5014C17.444 26.2219 17.3506 25.8068 17.483 25.4347L18.5283 22.4161L26.5339 25.1894C26.136 26.3681 24.5522 31.0891 24.148 32.2657C23.9545 32.8209 23.3481 33.1148 22.7924 32.9227L22.7881 32.9206ZM17.0681 54.1206L24.4626 43.9467C25.3052 42.8129 25.2188 42.2401 25.9963 36.7862C26.2459 37.1329 25.431 36.2006 30.093 41.4219L29.5469 44.5504C29.4253 45.2758 29.8605 44.5835 20.5409 56.6145C20.0435 57.3523 19.1442 57.709 18.2763 57.5129C17.4085 57.3168 16.75 56.6081 16.618 55.7281C16.55 55.1538 16.7118 54.576 17.0681 54.1206ZM30.8268 46.783C31.4844 45.7916 31.8567 44.6384 31.9029 43.4497L34.3102 46.1451C34.8889 46.8886 35.202 47.8045 35.1997 48.7467V55.4667C35.2034 56.2177 35.4074 56.9542 35.7906 57.6001H22.4799L30.8268 46.783ZM2.13627 61.8667L3.20283 59.7334H60.7972L61.8637 61.8667H2.13627Z" fill="white"/>
</svg>
