<svg width="64" height="64" viewBox="0 0 64 64" fill="none" xmlns="http://www.w3.org/2000/svg">
<path d="M20.1365 28.5461C18.1253 24.8537 17.07 20.7167 17.0667 16.512V12.4416C17.4532 12.2594 17.8054 12.0119 18.1077 11.7099C19.1059 10.7122 19.4546 9.23608 19.0082 7.89723C18.5619 6.55839 17.3972 5.58679 16 5.38773V2.13333C16 0.955126 15.0449 0 13.8667 0H9.6C8.42179 0 7.46667 0.955126 7.46667 2.13333V5.38667C5.83813 5.61792 4.55425 6.89027 4.30832 8.51665C4.06238 10.143 4.91266 11.7381 6.4 12.4405V16.512C6.3979 18.6055 6.13672 20.6907 5.6224 22.72C5.10425 24.7483 4.33417 26.7038 3.33013 28.5408C1.14771 32.5478 0.00287731 37.0372 0 41.6V58.6667C0.00352653 61.6107 2.38928 63.9965 5.33333 64H18.1333C21.0774 63.9965 23.4631 61.6107 23.4667 58.6667V41.6C23.4643 39.3282 23.1813 37.0653 22.624 34.8629C22.0612 32.6619 21.2256 30.5399 20.1365 28.5461ZM2.13333 42.6667H21.3333V53.3333H2.13333V42.6667ZM9.6 2.13333H13.8667V5.33333H9.6V2.13333ZM5.2032 29.5669C6.29221 27.5743 7.12785 25.4533 7.69067 23.2533C8.24864 21.0496 8.53168 18.7853 8.53333 16.512V12.8H9.6C10.1891 12.8 10.6667 12.3224 10.6667 11.7333C10.6667 11.1442 10.1891 10.6667 9.6 10.6667H7.76107C7.73466 10.6545 7.70759 10.6438 7.68 10.6347C6.87443 10.4711 6.32388 9.72371 6.40649 8.90587C6.4891 8.08802 7.178 7.46584 8 7.46667H15.4667C16.2907 7.46307 16.9828 8.08599 17.0656 8.90591C17.1483 9.72582 16.5948 10.4745 15.7867 10.6357C15.7597 10.6443 15.7333 10.6546 15.7077 10.6667H13.8667C13.2776 10.6667 12.8 11.1442 12.8 11.7333C12.8 12.3224 13.2776 12.8 13.8667 12.8H14.9333V16.512C14.9371 21.0733 16.0819 25.5612 18.2635 29.5669C19.2672 31.4037 20.0373 33.3588 20.5557 35.3867C20.979 37.0724 21.2292 38.7968 21.3024 40.5333H2.1664C2.32947 36.6942 3.3682 32.9431 5.2032 29.5669ZM18.1333 61.8667H5.33333C3.56602 61.8667 2.13333 60.434 2.13333 58.6667V55.4667H21.3333V58.6667C21.3333 60.434 19.9006 61.8667 18.1333 61.8667Z" fill="white"/>
<path d="M13.8668 44.8H9.60011C9.01101 44.8 8.53345 45.2775 8.53345 45.8666C8.53345 46.4558 9.01101 46.9333 9.60011 46.9333H13.8668C14.4559 46.9333 14.9334 46.4558 14.9334 45.8666C14.9334 45.2775 14.4559 44.8 13.8668 44.8Z" fill="white"/>
<path d="M13.8668 49.0667H9.60011C9.01101 49.0667 8.53345 49.5442 8.53345 50.1333C8.53345 50.7224 9.01101 51.2 9.60011 51.2H13.8668C14.4559 51.2 14.9334 50.7224 14.9334 50.1333C14.9334 49.5442 14.4559 49.0667 13.8668 49.0667Z" fill="white"/>
<path d="M33.7066 29.1637C32.7852 28.8451 31.9261 28.3687 31.168 27.7557C30.2723 26.9144 29.8564 25.6812 30.0597 24.4693C30.1348 23.8846 29.7217 23.3497 29.137 23.2746C28.5523 23.1995 28.0175 23.6126 27.9424 24.1973C27.6494 26.1285 28.3449 28.078 29.7941 29.3877C30.7434 30.1658 31.8232 30.7693 32.9834 31.1701C33.0993 31.2123 33.2217 31.2336 33.345 31.233C33.8624 31.2319 34.3044 30.8596 34.3935 30.35C34.4825 29.8403 34.193 29.3402 33.7066 29.1637Z" fill="white"/>
<path d="M60.4192 32.656C62.9964 30.4199 64.2544 27.0234 63.7557 23.648L60.9067 1.98404C60.7725 0.919107 59.868 0.119686 58.7947 0.117371H28.6688C27.6002 0.120592 26.6989 0.913877 26.56 1.97337L23.7099 23.6502C23.2104 27.0228 24.4674 30.417 27.0432 32.6507C29.391 34.5276 32.2158 35.7122 35.2 36.0715L35.1787 55.6683C30.2048 56.2806 26.3115 58.2998 25.0187 60.9312C24.6914 61.5899 24.7282 62.371 25.1159 62.996C25.5037 63.6209 26.1872 64.0008 26.9227 64H61.6107C62.345 64.0006 63.0275 63.6218 63.4155 62.9983C63.8034 62.3748 63.8417 61.5951 63.5168 60.9366C62.2155 58.2976 58.3232 56.2795 53.3333 55.6694V35.8902C55.9289 35.4226 58.3654 34.3106 60.4192 32.656ZM59.0453 31.024C56.3498 33.119 53.0128 34.2175 49.6 34.1334C48.6883 34.1317 47.7781 34.0582 46.8779 33.9136C47.5159 33.5432 48.1224 33.1207 48.6912 32.6507C51.2662 30.4165 52.5228 27.0226 52.0235 23.6502L51.0709 16.3894C52.3773 15.9207 53.7592 15.6983 55.1467 15.7334C57.096 15.6669 59.0275 16.1252 60.7392 17.0603L61.6405 23.9211C62.0442 26.5765 61.0658 29.2544 59.0453 31.024ZM44.2731 56.1536C43.3922 55.94 42.4997 55.7779 41.6 55.6683V35.8891C42.3273 35.7493 43.0454 35.5655 43.7504 35.3387C44.787 35.6785 45.8524 35.9234 46.9333 36.0704L46.912 55.6662C46.023 55.7733 45.1416 55.9361 44.2731 56.1536ZM60.4107 14.5536C58.74 13.8772 56.9485 13.5505 55.1467 13.5936C53.6692 13.5687 52.1973 13.7812 50.7872 14.223L49.216 2.2507H58.7936L60.4107 14.5536ZM28.6688 2.2507H47.0645L48.6784 14.5568C47.0073 13.8808 45.2155 13.5541 43.4133 13.5968C40.9147 13.5372 38.4492 14.1786 36.2965 15.4486C34.4399 16.5587 32.3066 17.1198 30.144 17.0667C29.0088 17.0837 27.8769 16.94 26.7819 16.64L28.6688 2.2507ZM25.8251 23.9254L26.5013 18.7702C27.6923 19.0675 28.9165 19.2109 30.144 19.1968C32.6511 19.2576 35.1251 18.6146 37.2853 17.3408C39.1351 16.2369 41.2598 15.6796 43.4133 15.7334C45.3636 15.6687 47.2955 16.1292 49.0069 17.0667L49.9072 23.9286C50.292 26.5791 49.3189 29.2455 47.3173 31.0251C44.6191 33.1187 41.2808 34.2166 37.8667 34.1334C34.4522 34.2149 31.1143 33.1151 28.4171 31.0198C26.4153 29.2412 25.4414 26.5756 25.8251 23.9254ZM35.44 57.7856C36.5144 57.6577 37.3259 56.7503 37.3333 55.6683V36.2454C37.5115 36.2507 37.6875 36.2667 37.8667 36.2667C38.4 36.2667 38.9333 36.2422 39.4667 36.1984V55.6683C39.4741 56.7503 40.2855 57.6577 41.36 57.7856C45.4976 58.2944 48.9173 59.9392 49.8773 61.8667H38.656C38.6464 61.8667 38.6379 61.872 38.6283 61.872L26.9301 61.8784C27.8827 59.9392 31.3024 58.2944 35.44 57.7856ZM53.0965 57.7856C57.2277 58.2944 60.6464 59.9414 61.6107 61.8688H51.9957C51.9976 61.5471 51.9246 61.2294 51.7824 60.9408C50.9189 59.4221 49.594 58.218 48 57.503C48.6574 57.126 49.0639 56.4272 49.0667 55.6694V36.2454C49.2448 36.2454 49.4208 36.2667 49.6 36.2667C50.1333 36.2667 50.6667 36.2422 51.2 36.1995V55.6694C51.2031 56.7536 52.0189 57.6632 53.0965 57.7835V57.7856Z" fill="white"/>
</svg>
